# xmcd
#
# Track frame offsets: 
#        150
#        23790
#        41693
#        64430
#        86635
#        105000
#        128743
#        145285
#        165083
#        189103
#        204778
#        227213
#        244590
#
# Disc length: 3508 seconds
#
# Revision: 2
# Processed by: cddbd v1.5.2PL0 Copyright (c) Steve Scherf et al.
# Submitted via: ExactAudioCopy v0.99pb5
#
DISCID=9b0db20d
DTITLE=Doug MacLeod - You Can't Take My Blues (Audioquest AQ-CD1041)
DYEAR=1996
DGENRE=blues
TTITLE0=One Good Woman
TTITLE1=Bus With No Destination
TTITLE2=You Can't Take My Blues
TTITLE3=Things'll Be Better, You'll See
TTITLE4=Papa John
TTITLE5=Hey Bartender
TTITLE6=Another Funny Deal Goin' Down
TTITLE7=Walkin' My Way Back To You
TTITLE8=All I Had Was The Blues
TTITLE9=Runnin' With Carey
TTITLE10=Chill On Cold
TTITLE11=Handle It Yourself
TTITLE12=Sometimes I Wonder
EXTD=
EXTT0=
EXTT1=
EXTT2=
EXTT3=
EXTT4=
EXTT5=
EXTT6=
EXTT7=
EXTT8=
EXTT9=
EXTT10=
EXTT11=
EXTT12=
PLAYORDER=
